# xmcd
#
# Track frame offsets: 
#        150
#        13957
#        26792
#        40475
#        51757
#        64230
#        77365
#        89765
#        103570
#        115080
#        127745
#        139710
#        151072
#        163795
#        174865
#        187472
#        198470
#        210332
#        223977
#        236477
#        250050
#        262485
#        274435
#        285550
#        297172
#        310710
#
# Disc length: 4321 seconds
#
# Revision: 7
# Processed by: cddbd v1.5.2PL0 Copyright (c) Steve Scherf et al.
# Submitted via: ExactAudioCopy v1.1
#
DISCID=8810df1a
DTITLE=Various Artist - The Mercury Blues 'N' Rhythm Story, 1945-1955
DTITLE=[box set]
DYEAR=1996
DGENRE=Rhythm and Blues
TTITLE0=Jay McShann with Crown Prince Waterford - Garfield Avenue Boog
TTITLE0=ie (mono)
TTITLE1=Jay McShann with Crown Prince Waterford - Crown Prince Blues (
TTITLE1=mono)
TTITLE2=Jay McShann with Jimmy Witherspoon - Shipyard Woman Blues (mon
TTITLE2=o)
TTITLE3=Walter Brown - W.B. Blues (mono)
TTITLE4=Walter Brown - Sloppy Drunk (mono)
TTITLE5=Walter Brown - Lovin' A Beggar (mono)
TTITLE6=Alma Mondy - Miss Lollipop's Confession (mono)
TTITLE7=Alma Mondy - Love Troubles (mono)
TTITLE8=Alma Mondy - Baby Get Wise (mono)
TTITLE9=Roy Byrd - Byrd's Blues (mono)
TTITLE10=Roy Byrd - Her Mind Is Gone (mono)
TTITLE11=Roy Byrd - Bald Head (mono)
TTITLE12=Roy Byrd - Hey Now Baby (mono)
TTITLE13=Roy Byrd - Oh Well (mono)
TTITLE14=George Miller - Boogie's The Thing (mono)
TTITLE15=Little Joe Gaines - She Won't Leave No More (mono)
TTITLE16=Hosie Dwine Craven - Mercury Boogie (mono)
TTITLE17=Roy Byrd - Hadacol Bounce (mono)
TTITLE18=Roy Byrd - Longhair Stomp (mono)
TTITLE19=Roy Byrd - Been Fooling Around (mono)
TTITLE20=Roy Byrd - Between The Night And Day (In The Wee Wee Hours) (
TTITLE20=mono)
TTITLE21=Alma Mondy - Streetwalkin' Daddy (mono)
TTITLE22=Alma Mondy - A Job For A Jockey (mono)
TTITLE23=Alma Mondy - Still My Little Angel Child (mono)
TTITLE24=Lee Graves - Cloudy Weather Blues (mono)
TTITLE25=Lee Graves - Sixty Years And A Day (mono)
EXTD=
EXTT0=
EXTT1=
EXTT2=
EXTT3=
EXTT4=
EXTT5=
EXTT6=
EXTT7=
EXTT8=
EXTT9=
EXTT10=
EXTT11=
EXTT12=
EXTT13=
EXTT14=
EXTT15=
EXTT16=
EXTT17=
EXTT18=
EXTT19=
EXTT20=
EXTT21=
EXTT22=
EXTT23=
EXTT24=
EXTT25=
PLAYORDER=
